<svg width="20" height="20" viewBox="0 0 20 20" fill="none" xmlns="http://www.w3.org/2000/svg">
<path opacity="0.4" fill-rule="evenodd" clip-rule="evenodd" d="M10 20C4.47715 20 0 15.5228 0 10C0 4.47715 4.47715 0 10 0C15.5228 0 20 4.47715 20 10C20 15.5228 15.5228 20 10 20ZM10 18C14.4183 18 18 14.4183 18 10C18 5.58172 14.4183 2 10 2C5.58172 2 2 5.58172 2 10C2 14.4183 5.58172 18 10 18Z" fill="white"/>
<path fill-rule="evenodd" clip-rule="evenodd" d="M2.92896 17.0711L4.34317 15.6569C5.79088 17.1046 7.79088 18 10 18C14.4183 18 18 14.4183 18 10C18 5.58172 14.4183 2 10 2V0C15.5229 0 20 4.47715 20 10C20 15.5228 15.5229 20 10 20C7.2386 20 4.7386 18.8807 2.92896 17.0711Z" fill="white"/>
</svg>
